#!OML:ASF F:\VICON\USERDATA\INSTALL\rory3\rory3.ASF
:FULLY-SPECIFIED
:DEGREES
257
root 12.0291 17.8243 10.4768 -4.44356 -67.7014 5.89983
lowerback 10.3496 1.42901 0.0283453
upperback 0.338954 1.8761 -0.180869
thorax -5.44499 0.913208 -0.482823
lowerneck -16.9141 -8.26508 -14.1018
upperneck 26.8627 -11.6035 11.5879
head 13.4339 -5.28706 4.88547
rclavicle 3.65267e-014 4.77083e-015
rhumerus -29.1136 -2.05092 -87.1217
rradius 45.2465
rwrist 0.646834
rhand -15.5968 11.1057
rfingers 7.12502
rthumb 10.5891 -18.6075
lclavicle 3.65267e-014 4.77083e-015
lhumerus -40.0838 6.86578 81.058
lradius 31.1575
lwrist -9.36109
lhand -19.6304 29.8596
lfingers 7.12502
lthumb 6.69665 59.7337
rfemur -3.08618 1.74322 31.9059
rtibia 21.1832
rfoot -12.6969 3.90738
rtoes 21.4626
lfemur -16.6324 -3.33663 -14.0707
ltibia 60.1858
lfoot -4.43185 0.167674
ltoes -10.2705
258
root 11.9723 17.8279 10.5326 -4.7687 -69.1604 6.24904
lowerback 10.2971 1.4339 0.120014
upperback 0.429057 1.8881 -0.246605
thorax -5.31561 0.916081 -0.601504
lowerneck -17.0449 -8.15553 -13.9655
upperneck 26.8061 -11.4312 11.5018
head 13.3923 -5.20389 4.85592
rclavicle -2.52953e-014 1.11319e-014
rhumerus -28.8805 -1.80236 -87.2198
rradius 45.2829
rwrist 0.488686
rhand -15.4577 10.7121
rfingers 7.12502
rthumb 10.7233 -18.9942
lclavicle -2.52953e-014 1.11319e-014
lhumerus -40.0138 6.15085 81.186
lradius 31.1371
lwrist -8.72389
lhand -19.7077 29.4436
lfingers 7.12502
lthumb 6.62197 59.3201
rfemur -2.83415 2.36185 31.7668
rtibia 21.4769
rfoot -13.144 4.47704
rtoes 20.8471
lfemur -17.065 -3.72877 -13.9908
ltibia 59.7518
lfoot -5.11783 0.39443
ltoes -9.61809
259
root 11.9174 17.8208 10.5885 -5.19626 -70.5416 6.76835
lowerback 10.1518 1.3783 0.184069
upperback 0.524052 1.8137 -0.364722
thorax -5.12937 0.877091 -0.743959
lowerneck -17.3654 -7.98202 -13.6234
upperneck 26.8731 -11.1811 11.3013
head 13.4067 -5.07294 4.75987
rclavicle -7.30534e-015 -4.37326e-015
rhumerus -28.5987 -1.59628 -87.4283
rradius 45.2631
rwrist 0.341415
rhand -15.6129 10.5887
rfingers 7.12502
rthumb 10.5736 -19.1253
lclavicle -7.30534e-015 -4.37326e-015
lhumerus -39.9531 5.95904 81.026
lradius 31.1195
lwrist -8.40892
lhand -19.4877 29.1162
lfingers 7.12502
lthumb 6.83436 58.9859
rfemur -2.68245 2.99857 31.5753
rtibia 21.7922
rfoot -13.6912 4.96245
rtoes 25.5867
lfemur -17.5664 -3.84395 -14.015
ltibia 59.2379
lfoot -5.67832 0.553118
ltoes -13.5844
260
root 11.8654 17.8113 10.6435 -5.72373 -71.778 7.32082
lowerback 10.1928 1.37185 0.226647
upperback 0.528855 1.81037 -0.34797
thorax -5.14655 0.874296 -0.750997
lowerneck -17.3395 -7.88858 -13.6519
upperneck 26.8442 -10.9692 11.0974
head 13.3418 -5.00914 4.72235
rclavicle -2.48481e-014 1.27222e-014
rhumerus -28.426 -1.8532 -87.3375
rradius 45.0898
rwrist 0.562093
rhand -15.6505 10.8655
rfingers 7.12502
rthumb 10.5373 -18.8503
lclavicle -2.48481e-014 1.27222e-014
lhumerus -39.9898 5.90593 81.0499
lradius 30.9994
lwrist -8.46875
lhand -19.2088 28.6886
lfingers 7.12502
lthumb 7.10361 58.5493
rfemur -2.46094 3.47677 31.3793
rtibia 22.0365
rfoot -14.0214 5.49315
rtoes 27.7477
lfemur -18.0307 -4.32158 -14.1031
ltibia 58.6199
lfoot -6.041 0.947222
ltoes -16.1392
261
root 11.8137 17.8085 10.6988 -6.40755 -72.9226 7.90876
lowerback 10.4433 1.41215 0.321356
upperback 0.549741 1.87555 -0.313332
thorax -5.26223 0.90314 -0.784279
lowerneck -17.2262 -7.88423 -13.8243
upperneck 26.7274 -10.869 10.9694
head 13.2564 -5.00144 4.71739
rclavicle -7.26061e-014 5.96354e-015
rhumerus -28.2338 -2.4418 -87.1876
rradius 44.8894
rwrist 1.08605
rhand -15.7544 10.7747
rfingers 7.12502
rthumb 10.4371 -18.9462
lclavicle -7.26061e-014 5.96354e-015
lhumerus -39.91 5.52489 81.2231
lradius 30.821
lwrist -8.33785
lhand -19.1814 28.4185
lfingers 7.12502
lthumb 7.13007 58.2784
rfemur -2.09206 3.84881 31.1766
rtibia 22.2147
rfoot -14.4382 6.14145
rtoes 28.7308
lfemur -18.3713 -5.19516 -14.2238
ltibia 57.9015
lfoot -6.37378 1.42907
ltoes -17.4984
262
root 11.7548 17.8141 10.7476 -6.8599 -74.367 8.33581
lowerback 10.525 1.431 0.410006
upperback 0.628693 1.90435 -0.395408
thorax -5.219 0.913777 -0.924798
lowerneck -17.3914 -7.73174 -13.5495
upperneck 26.659 -10.6841 10.9194
head 13.2104 -4.8935 4.68052
rclavicle -1.02374e-014 7.95139e-015
rhumerus -27.9757 -2.61015 -87.448
rradius 44.7608
rwrist 1.39547
rhand -16.0385 10.6539
rfingers 7.12502
rthumb 10.163 -19.0806
lclavicle -1.02374e-014 7.95139e-015
lhumerus -39.7722 5.43521 80.8739
lradius 30.7647
lwrist -8.19001
lhand -18.5258 28.281
lfingers 7.12502
lthumb 7.7629 58.1185
rfemur -1.75124 4.22595 31.0735
rtibia 22.3182
rfoot -14.5535 7.17356
rtoes 30.1977
lfemur -18.7139 -5.41012 -14.1421
ltibia 57.1053
lfoot -6.93977 1.45076
ltoes -18.7626
263
root 11.69 17.8163 10.797 -8.25983 -75.8666 9.84939
lowerback 10.4824 1.49893 0.23928
upperback 0.638351 1.96427 -0.560712
thorax -5.18393 0.945272 -1.00854
lowerneck -17.4777 -7.56392 -13.2777
upperneck 26.6131 -10.521 10.9507
head 13.1671 -4.79023 4.67507
rclavicle 2.5842e-014 2.78299e-015
rhumerus -27.9663 -2.42658 -87.677
rradius 44.8528
rwrist 1.24114
rhand -16.0784 10.5742
rfingers 7.12502
rthumb 10.1246 -19.1622
lclavicle 2.5842e-014 2.78299e-015
lhumerus -39.7563 5.43445 80.451
lradius 30.795
lwrist -8.04069
lhand -17.7418 28.515
lfingers 7.12502
lthumb 8.51948 58.3231
rfemur -1.47142 4.45099 30.7231
rtibia 22.3337
rfoot -14.6168 7.9678
rtoes 29.4822
lfemur -19.1325 -4.98738 -14.2492
ltibia 56.263
lfoot -7.63353 0.921761
ltoes -18.4672
264
root 11.623 17.8112 10.8488 -10.1297 -77.0586 11.8127
lowerback 10.47 1.52864 -0.0169338
upperback 0.607876 1.96927 -0.631078
thorax -5.21507 0.952526 -0.938881
lowerneck -17.633 -7.58193 -13.1307
upperneck 26.7459 -10.5093 10.6859
head 13.2245 -4.79857 4.54553
rclavicle -3.54831e-014 -3.97569e-016
rhumerus -28.0886 -2.17924 -87.7067
rradius 44.9526
rwrist 0.905119
rhand -16.1458 10.3409
rfingers 7.12502
rthumb 10.0595 -19.3987
lclavicle -3.54831e-014 -3.97569e-016
lhumerus -39.7515 5.45534 80.2552
lradius 30.7187
lwrist -8.03198
lhand -17.2446 28.6965
lfingers 7.12502
lthumb 8.99929 58.4846
rfemur -1.12188 4.73943 30.3253
rtibia 22.2985
rfoot -15.0297 7.95562
rtoes 27.6546
lfemur -19.6026 -4.60292 -14.4613
ltibia 55.4086
lfoot -8.06567 0.354958
ltoes -17.9814
265
root 11.5607 17.8054 10.9001 -11.1573 -78.2089 12.7081
lowerback 10.6778 1.49433 0.0138082
upperback 0.668366 1.92739 -0.577934
thorax -5.26934 0.930498 -0.899612
lowerneck -18.1235 -7.71285 -13.0613
upperneck 27.0547 -10.5702 10.2963
head 13.4339 -4.84927 4.36173
rclavicle -2.22639e-014 -1.98785e-016
rhumerus -28.0787 -2.08145 -87.6766
rradius 44.9403
rwrist 0.938224
rhand -16.1972 10.288
rfingers 7.12502
rthumb 10.0099 -19.454
lclavicle -2.22639e-014 -1.98785e-016
lhumerus -39.6407 5.64554 80.0429
lradius 30.5938
lwrist -8.16435
lhand -17.0344 28.6911
lfingers 7.12502
lthumb 9.20215 58.4703
rfemur -0.604802 5.07853 30.2533
rtibia 22.2796
rfoot -15.4108 7.60758
rtoes 26.6239
lfemur -19.8987 -4.48279 -14.4234
ltibia 54.5505
lfoot -8.32956 0.14786
ltoes -18.185
266
root 11.5052 17.7996 10.9492 -11.0521 -79.3661 12.4472
lowerback 10.981 1.4742 0.367891
upperback 0.737062 1.94656 -0.476153
thorax -5.35811 0.931056 -1.00313
lowerneck -18.4022 -7.77457 -13.5231
upperneck 27.1264 -10.5699 10.566
head 13.574 -4.85483 4.54523
rclavicle 8.24956e-015 0
rhumerus -28.0664 -1.88362 -87.5985
rradius 44.907
rwrist 0.710727
rhand -16.4111 10.4805
rfingers 7.12502
rthumb 9.80355 -19.2713
lclavicle 8.24956e-015 0
lhumerus -39.4301 5.70319 79.8885
lradius 30.5258
lwrist -8.16245
lhand -17.3905 29.1265
lfingers 7.12502
lthumb 8.85854 58.9205
rfemur -0.157599 5.04574 30.4368
rtibia 22.2603
rfoot -15.8471 7.52398
rtoes 25.1386
lfemur -20.219 -4.50386 -14.1149
ltibia 53.6607
lfoot -8.52039 -0.018389
ltoes -17.4972
267
root 11.448 17.8002 10.9912 -10.716 -80.334 12.1834
lowerback 11.096 1.47225 0.66054
upperback 0.719299 1.98444 -0.403802
thorax -5.433 0.942699 -1.10184
lowerneck -18.5185 -7.77672 -14.0391
upperneck 27.2104 -10.566 11.0577
head 13.7044 -4.84606 4.83576
rclavicle -1.62506e-014 7.95139e-016
rhumerus -28.1696 -1.73182 -87.5001
rradius 44.8984
rwrist 0.0485289
rhand -16.6956 10.7966
rfingers 7.12502
rthumb 9.52909 -18.9679
lclavicle -1.62506e-014 7.95139e-016
lhumerus -39.164 5.72416 79.6873
lradius 30.4377
lwrist -8.33897
lhand -17.076 28.9943
lfingers 7.12502
lthumb 9.162 58.7752
rfemur 0.0550324 4.84281 30.5699
rtibia 22.1873
rfoot -15.9396 8.0492
rtoes 25.0545
lfemur -20.852 -4.60107 -13.7932
ltibia 52.7124
lfoot -8.6663 -0.487368
ltoes -15.0692
